G04 #@! TF.FileFunction,Copper,L1,Top,Signal*
%FSLAX46Y46*%
G04 Gerber Fmt 4.6, Leading zero omitted, Abs format (unit mm)*
G04 Created by KiCad (PCBNEW 4.0.2+dfsg1-stable) date Thu 29 Sep 2016 01:56:18 PM PDT*
%MOMM*%
G01*
G04 APERTURE LIST*
%ADD10C,0.100000*%
%ADD11C,0.010000*%
%ADD12C,0.250000*%
%ADD13R,2.032000X1.727200*%
%ADD14O,2.032000X1.727200*%
%ADD15R,0.500380X2.301240*%
%ADD16R,1.998980X2.499360*%
%ADD17R,1.727200X2.032000*%
%ADD18O,1.727200X2.032000*%
%ADD19C,1.350000*%
%ADD20R,1.350000X1.350000*%
%ADD21R,1.300000X1.500000*%
%ADD22R,3.500000X3.500000*%
%ADD23R,1.500000X1.300000*%
%ADD24R,1.000760X2.501900*%
%ADD25R,1.998980X4.000500*%
%ADD26R,2.032000X2.032000*%
%ADD27O,2.032000X2.032000*%
%ADD28R,1.000000X2.750000*%
%ADD29R,1.220000X0.910000*%
%ADD30R,3.657600X2.032000*%
%ADD31R,1.016000X2.032000*%
%ADD32C,3.000000*%
%ADD33O,1.501140X0.899160*%
%ADD34R,1.700000X2.000000*%
%ADD35C,0.600000*%
%ADD36C,0.300000*%
G04 APERTURE END LIST*
D10*
D11*
X0Y-49000000D02*
G75*
G03X1000000Y-50000000I1000000J0D01*
G01*
X1000000Y-51000000D02*
G75*
G03X0Y-52000000I0J-1000000D01*
G01*
X24000000Y-50500000D02*
G75*
G03X23500000Y-50000000I-500000J0D01*
G01*
X23500000Y-51000000D02*
G75*
G03X24000000Y-50500000I0J500000D01*
G01*
X26000000Y-50500000D02*
G75*
G03X26500000Y-51000000I500000J0D01*
G01*
X26500000Y-50000000D02*
G75*
G03X26000000Y-50500000I0J-500000D01*
G01*
X49000000Y-50000000D02*
G75*
G03X50000000Y-49000000I0J1000000D01*
G01*
X50000000Y-51000000D02*
G75*
G03X51000000Y-50000000I0J1000000D01*
G01*
X1000000Y0D02*
G75*
G03X0Y-1000000I0J-1000000D01*
G01*
X52000000Y0D02*
G75*
G03X51000000Y-1000000I0J-1000000D01*
G01*
X50000000Y-1000000D02*
G75*
G03X49000000Y0I-1000000J0D01*
G01*
X51000000Y-26500000D02*
G75*
G03X50500000Y-26000000I-500000J0D01*
G01*
X50500000Y-26000000D02*
G75*
G03X50000000Y-26500000I0J-500000D01*
G01*
X50500000Y-24000000D02*
G75*
G03X51000000Y-23500000I0J500000D01*
G01*
X50000000Y-23500000D02*
G75*
G03X50500000Y-24000000I500000J0D01*
G01*
X77000000Y0D02*
G75*
G03X76000000Y-1000000I0J-1000000D01*
G01*
X75000000Y-1000000D02*
G75*
G03X74000000Y0I-1000000J0D01*
G01*
X76000000Y-20000000D02*
G75*
G03X75500000Y-19500000I-500000J0D01*
G01*
X75500000Y-19500000D02*
G75*
G03X75000000Y-20000000I0J-500000D01*
G01*
X75500000Y-17500000D02*
G75*
G03X76000000Y-17000000I0J500000D01*
G01*
X75000000Y-17000000D02*
G75*
G03X75500000Y-17500000I500000J0D01*
G01*
X75000000Y-37000000D02*
G75*
G03X76000000Y-38000000I1000000J0D01*
G01*
X76000000Y-36000000D02*
G75*
G03X77000000Y-37000000I1000000J0D01*
G01*
X89000000Y-37500000D02*
G75*
G03X89500000Y-38000000I500000J0D01*
G01*
X89500000Y-37000000D02*
G75*
G03X89000000Y-37500000I0J-500000D01*
G01*
X86500000Y-38000000D02*
G75*
G03X87000000Y-37500000I0J500000D01*
G01*
X87000000Y-37500000D02*
G75*
G03X86500000Y-37000000I-500000J0D01*
G01*
X100000000Y-39000000D02*
G75*
G03X99000000Y-38000000I-1000000J0D01*
G01*
X99000000Y-37000000D02*
G75*
G03X100000000Y-36000000I0J1000000D01*
G01*
X100000000Y-1000000D02*
G75*
G03X99000000Y0I-1000000J0D01*
G01*
X99000000Y-100000000D02*
G75*
G03X100000000Y-99000000I0J1000000D01*
G01*
X99000000Y-61000000D02*
G75*
G03X99500000Y-60500000I0J500000D01*
G01*
X99500000Y-60500000D02*
G75*
G03X99000000Y-60000000I-500000J0D01*
G01*
X89000000Y-60000000D02*
G75*
G03X88000000Y-61000000I0J-1000000D01*
G01*
X90000000Y-61000000D02*
G75*
G03X89000000Y-62000000I0J-1000000D01*
G01*
X88000000Y-75000000D02*
G75*
G03X89000000Y-74000000I0J1000000D01*
G01*
X87000000Y-74000000D02*
G75*
G03X88000000Y-73000000I0J1000000D01*
G01*
X22000000Y-74000000D02*
G75*
G03X21000000Y-75000000I0J-1000000D01*
G01*
X23000000Y-75000000D02*
G75*
G03X22000000Y-76000000I0J-1000000D01*
G01*
X21500000Y-80000000D02*
G75*
G03X22000000Y-79500000I0J500000D01*
G01*
X21000000Y-79500000D02*
G75*
G03X21500000Y-80000000I500000J0D01*
G01*
X21500000Y-81000000D02*
G75*
G03X21000000Y-81500000I0J-500000D01*
G01*
X22000000Y-81500000D02*
G75*
G03X21500000Y-81000000I-500000J0D01*
G01*
X21000000Y-86500000D02*
G75*
G03X22000000Y-87500000I1000000J0D01*
G01*
X22000000Y-85500000D02*
G75*
G03X23000000Y-86500000I1000000J0D01*
G01*
X89000000Y-87500000D02*
G75*
G03X88000000Y-86500000I-1000000J0D01*
G01*
X88000000Y-88500000D02*
G75*
G03X87000000Y-87500000I-1000000J0D01*
G01*
X88500000Y-99500000D02*
G75*
G03X89000000Y-99000000I0J500000D01*
G01*
X88000000Y-99000000D02*
G75*
G03X88500000Y-99500000I500000J0D01*
G01*
X50000000Y-23500000D02*
X50000000Y-1000000D01*
X1000000Y-50000000D02*
X23500000Y-50000000D01*
X23500000Y-51000000D02*
X1000000Y-51000000D01*
X26500000Y-50000000D02*
X49000000Y-50000000D01*
X50000000Y-51000000D02*
X26500000Y-51000000D01*
X51000000Y-50000000D02*
X51000000Y-26500000D01*
X50000000Y-26500000D02*
X50000000Y-49000000D01*
X51000000Y-23500000D02*
X51000000Y-1000000D01*
X1000000Y0D02*
X49000000Y0D01*
X0Y-49000000D02*
X0Y-1000000D01*
X0Y-100000000D02*
X0Y-52000000D01*
X52000000Y0D02*
X74000000Y0D01*
X76000000Y-36000000D02*
X76000000Y-20000000D01*
X75000000Y-20000000D02*
X75000000Y-37000000D01*
X76000000Y-1000000D02*
X76000000Y-17000000D01*
X75000000Y-17000000D02*
X75000000Y-1000000D01*
X100000000Y-39000000D02*
X100000000Y-99000000D01*
X99000000Y0D02*
X77000000Y0D01*
X100000000Y-36000000D02*
X100000000Y-1000000D01*
X76000000Y-38000000D02*
X86500000Y-38000000D01*
X86500000Y-37000000D02*
X77000000Y-37000000D01*
X89500000Y-38000000D02*
X99000000Y-38000000D01*
X99000000Y-37000000D02*
X89500000Y-37000000D01*
X99000000Y-100000000D02*
X0Y-100000000D01*
X90000000Y-61000000D02*
X99000000Y-61000000D01*
X99000000Y-60000000D02*
X89000000Y-60000000D01*
X88000000Y-88500000D02*
X88000000Y-99000000D01*
X89000000Y-99000000D02*
X89000000Y-87500000D01*
X22000000Y-87500000D02*
X87000000Y-87500000D01*
X22000000Y-85500000D02*
X22000000Y-81500000D01*
X88000000Y-86500000D02*
X23000000Y-86500000D01*
X21000000Y-81500000D02*
X21000000Y-86500000D01*
X22000000Y-79500000D02*
X22000000Y-76000000D01*
X21000000Y-75000000D02*
X21000000Y-79500000D01*
X22000000Y-74000000D02*
X87000000Y-74000000D01*
X88000000Y-75000000D02*
X23000000Y-75000000D01*
X89000000Y-62000000D02*
X89000000Y-74000000D01*
X88000000Y-61000000D02*
X88000000Y-73000000D01*
D12*
X13238096Y-4627381D02*
X13238096Y-5341667D01*
X13190476Y-5484524D01*
X13095238Y-5579762D01*
X12952381Y-5627381D01*
X12857143Y-5627381D01*
X14238096Y-4675000D02*
X14142858Y-4627381D01*
X14000001Y-4627381D01*
X13857143Y-4675000D01*
X13761905Y-4770238D01*
X13714286Y-4865476D01*
X13666667Y-5055952D01*
X13666667Y-5198810D01*
X13714286Y-5389286D01*
X13761905Y-5484524D01*
X13857143Y-5579762D01*
X14000001Y-5627381D01*
X14095239Y-5627381D01*
X14238096Y-5579762D01*
X14285715Y-5532143D01*
X14285715Y-5198810D01*
X14095239Y-5198810D01*
X16047620Y-5627381D02*
X15714286Y-5151190D01*
X15476191Y-5627381D02*
X15476191Y-4627381D01*
X15857144Y-4627381D01*
X15952382Y-4675000D01*
X16000001Y-4722619D01*
X16047620Y-4817857D01*
X16047620Y-4960714D01*
X16000001Y-5055952D01*
X15952382Y-5103571D01*
X15857144Y-5151190D01*
X15476191Y-5151190D01*
X16857144Y-5579762D02*
X16761906Y-5627381D01*
X16571429Y-5627381D01*
X16476191Y-5579762D01*
X16428572Y-5484524D01*
X16428572Y-5103571D01*
X16476191Y-5008333D01*
X16571429Y-4960714D01*
X16761906Y-4960714D01*
X16857144Y-5008333D01*
X16904763Y-5103571D01*
X16904763Y-5198810D01*
X16428572Y-5294048D01*
X17238096Y-4960714D02*
X17476191Y-5627381D01*
X17714287Y-4960714D01*
X18095239Y-5532143D02*
X18142858Y-5579762D01*
X18095239Y-5627381D01*
X18047620Y-5579762D01*
X18095239Y-5532143D01*
X18095239Y-5627381D01*
X18523810Y-4722619D02*
X18571429Y-4675000D01*
X18666667Y-4627381D01*
X18904763Y-4627381D01*
X19000001Y-4675000D01*
X19047620Y-4722619D01*
X19095239Y-4817857D01*
X19095239Y-4913095D01*
X19047620Y-5055952D01*
X18476191Y-5627381D01*
X19095239Y-5627381D01*
X11904762Y-6372619D02*
X11952381Y-6325000D01*
X12047619Y-6277381D01*
X12285715Y-6277381D01*
X12380953Y-6325000D01*
X12428572Y-6372619D01*
X12476191Y-6467857D01*
X12476191Y-6563095D01*
X12428572Y-6705952D01*
X11857143Y-7277381D01*
X12476191Y-7277381D01*
X13095238Y-6277381D02*
X13190477Y-6277381D01*
X13285715Y-6325000D01*
X13333334Y-6372619D01*
X13380953Y-6467857D01*
X13428572Y-6658333D01*
X13428572Y-6896429D01*
X13380953Y-7086905D01*
X13333334Y-7182143D01*
X13285715Y-7229762D01*
X13190477Y-7277381D01*
X13095238Y-7277381D01*
X13000000Y-7229762D01*
X12952381Y-7182143D01*
X12904762Y-7086905D01*
X12857143Y-6896429D01*
X12857143Y-6658333D01*
X12904762Y-6467857D01*
X12952381Y-6372619D01*
X13000000Y-6325000D01*
X13095238Y-6277381D01*
X14380953Y-7277381D02*
X13809524Y-7277381D01*
X14095238Y-7277381D02*
X14095238Y-6277381D01*
X14000000Y-6420238D01*
X13904762Y-6515476D01*
X13809524Y-6563095D01*
X15238096Y-6277381D02*
X15047619Y-6277381D01*
X14952381Y-6325000D01*
X14904762Y-6372619D01*
X14809524Y-6515476D01*
X14761905Y-6705952D01*
X14761905Y-7086905D01*
X14809524Y-7182143D01*
X14857143Y-7229762D01*
X14952381Y-7277381D01*
X15142858Y-7277381D01*
X15238096Y-7229762D01*
X15285715Y-7182143D01*
X15333334Y-7086905D01*
X15333334Y-6848810D01*
X15285715Y-6753571D01*
X15238096Y-6705952D01*
X15142858Y-6658333D01*
X14952381Y-6658333D01*
X14857143Y-6705952D01*
X14809524Y-6753571D01*
X14761905Y-6848810D01*
X15761905Y-7182143D02*
X15809524Y-7229762D01*
X15761905Y-7277381D01*
X15714286Y-7229762D01*
X15761905Y-7182143D01*
X15761905Y-7277381D01*
X16428571Y-6277381D02*
X16523810Y-6277381D01*
X16619048Y-6325000D01*
X16666667Y-6372619D01*
X16714286Y-6467857D01*
X16761905Y-6658333D01*
X16761905Y-6896429D01*
X16714286Y-7086905D01*
X16666667Y-7182143D01*
X16619048Y-7229762D01*
X16523810Y-7277381D01*
X16428571Y-7277381D01*
X16333333Y-7229762D01*
X16285714Y-7182143D01*
X16238095Y-7086905D01*
X16190476Y-6896429D01*
X16190476Y-6658333D01*
X16238095Y-6467857D01*
X16285714Y-6372619D01*
X16333333Y-6325000D01*
X16428571Y-6277381D01*
X17238095Y-7277381D02*
X17428571Y-7277381D01*
X17523810Y-7229762D01*
X17571429Y-7182143D01*
X17666667Y-7039286D01*
X17714286Y-6848810D01*
X17714286Y-6467857D01*
X17666667Y-6372619D01*
X17619048Y-6325000D01*
X17523810Y-6277381D01*
X17333333Y-6277381D01*
X17238095Y-6325000D01*
X17190476Y-6372619D01*
X17142857Y-6467857D01*
X17142857Y-6705952D01*
X17190476Y-6801190D01*
X17238095Y-6848810D01*
X17333333Y-6896429D01*
X17523810Y-6896429D01*
X17619048Y-6848810D01*
X17666667Y-6801190D01*
X17714286Y-6705952D01*
X18142857Y-7182143D02*
X18190476Y-7229762D01*
X18142857Y-7277381D01*
X18095238Y-7229762D01*
X18142857Y-7182143D01*
X18142857Y-7277381D01*
X18809523Y-6277381D02*
X18904762Y-6277381D01*
X19000000Y-6325000D01*
X19047619Y-6372619D01*
X19095238Y-6467857D01*
X19142857Y-6658333D01*
X19142857Y-6896429D01*
X19095238Y-7086905D01*
X19047619Y-7182143D01*
X19000000Y-7229762D01*
X18904762Y-7277381D01*
X18809523Y-7277381D01*
X18714285Y-7229762D01*
X18666666Y-7182143D01*
X18619047Y-7086905D01*
X18571428Y-6896429D01*
X18571428Y-6658333D01*
X18619047Y-6467857D01*
X18666666Y-6372619D01*
X18714285Y-6325000D01*
X18809523Y-6277381D01*
X20095238Y-7277381D02*
X19523809Y-7277381D01*
X19809523Y-7277381D02*
X19809523Y-6277381D01*
X19714285Y-6420238D01*
X19619047Y-6515476D01*
X19523809Y-6563095D01*
D13*
X84836000Y-84582000D03*
D14*
X84836000Y-82042000D03*
X84836000Y-79502000D03*
X84836000Y-76962000D03*
D13*
X82296000Y-84582000D03*
D14*
X82296000Y-82042000D03*
X82296000Y-79502000D03*
X82296000Y-76962000D03*
D13*
X79756000Y-84582000D03*
D14*
X79756000Y-82042000D03*
X79756000Y-79502000D03*
X79756000Y-76962000D03*
D13*
X77216000Y-84582000D03*
D14*
X77216000Y-82042000D03*
X77216000Y-79502000D03*
X77216000Y-76962000D03*
D13*
X74676000Y-84582000D03*
D14*
X74676000Y-82042000D03*
X74676000Y-79502000D03*
X74676000Y-76962000D03*
D13*
X72136000Y-84582000D03*
D14*
X72136000Y-82042000D03*
X72136000Y-79502000D03*
X72136000Y-76962000D03*
D13*
X69596000Y-84582000D03*
D14*
X69596000Y-82042000D03*
X69596000Y-79502000D03*
X69596000Y-76962000D03*
D13*
X67056000Y-84582000D03*
D14*
X67056000Y-82042000D03*
X67056000Y-79502000D03*
X67056000Y-76962000D03*
D13*
X64516000Y-84582000D03*
D14*
X64516000Y-82042000D03*
X64516000Y-79502000D03*
X64516000Y-76962000D03*
D13*
X61976000Y-84582000D03*
D14*
X61976000Y-82042000D03*
X61976000Y-79502000D03*
X61976000Y-76962000D03*
D13*
X59436000Y-84582000D03*
D14*
X59436000Y-82042000D03*
X59436000Y-79502000D03*
X59436000Y-76962000D03*
D13*
X56896000Y-84582000D03*
D14*
X56896000Y-82042000D03*
X56896000Y-79502000D03*
X56896000Y-76962000D03*
D13*
X54356000Y-84582000D03*
D14*
X54356000Y-82042000D03*
X54356000Y-79502000D03*
X54356000Y-76962000D03*
D13*
X51816000Y-84582000D03*
D14*
X51816000Y-82042000D03*
X51816000Y-79502000D03*
X51816000Y-76962000D03*
D13*
X49276000Y-84582000D03*
D14*
X49276000Y-82042000D03*
X49276000Y-79502000D03*
X49276000Y-76962000D03*
D13*
X46736000Y-84582000D03*
D14*
X46736000Y-82042000D03*
X46736000Y-79502000D03*
X46736000Y-76962000D03*
D13*
X44196000Y-84582000D03*
D14*
X44196000Y-82042000D03*
X44196000Y-79502000D03*
X44196000Y-76962000D03*
D13*
X41656000Y-84582000D03*
D14*
X41656000Y-82042000D03*
X41656000Y-79502000D03*
X41656000Y-76962000D03*
D13*
X39116000Y-84582000D03*
D14*
X39116000Y-82042000D03*
X39116000Y-79502000D03*
X39116000Y-76962000D03*
D13*
X36576000Y-84582000D03*
D14*
X36576000Y-82042000D03*
X36576000Y-79502000D03*
X36576000Y-76962000D03*
D13*
X34036000Y-84582000D03*
D14*
X34036000Y-82042000D03*
X34036000Y-79502000D03*
X34036000Y-76962000D03*
D13*
X31496000Y-84582000D03*
D14*
X31496000Y-82042000D03*
X31496000Y-79502000D03*
X31496000Y-76962000D03*
D13*
X28956000Y-84582000D03*
D14*
X28956000Y-82042000D03*
X28956000Y-79502000D03*
X28956000Y-76962000D03*
D15*
X18399800Y-42550680D03*
X19199900Y-42550680D03*
X20000000Y-42550680D03*
X20800100Y-42550680D03*
X21600200Y-42550680D03*
D16*
X15549920Y-42649740D03*
X15549920Y-48148840D03*
X24450080Y-42649740D03*
X24450080Y-48148840D03*
D17*
X48000000Y-48000000D03*
D18*
X45460000Y-48000000D03*
X42920000Y-48000000D03*
D19*
X93002000Y-32384000D03*
X83002000Y-32384000D03*
X85002000Y-32384000D03*
X87002000Y-32384000D03*
X89002000Y-32384000D03*
X91002000Y-32384000D03*
X96002000Y-30884000D03*
X96002000Y-28884000D03*
X96002000Y-26884000D03*
X96002000Y-24884000D03*
X96002000Y-22884000D03*
X96002000Y-20884000D03*
X96002000Y-18884000D03*
X96002000Y-16884000D03*
D20*
X80002000Y-16884000D03*
D19*
X80002000Y-18884000D03*
X80002000Y-20884000D03*
X80002000Y-22884000D03*
X80002000Y-24884000D03*
X80002000Y-26884000D03*
X80002000Y-28884000D03*
X80002000Y-30884000D03*
D21*
X21000000Y-18350000D03*
X21000000Y-15650000D03*
D22*
X15403600Y-28000000D03*
X8596400Y-28000000D03*
D23*
X48350000Y-31000000D03*
X45650000Y-31000000D03*
X41650000Y-13000000D03*
X44350000Y-13000000D03*
D21*
X24000000Y-18350000D03*
X24000000Y-15650000D03*
D23*
X48350000Y-34000000D03*
X45650000Y-34000000D03*
D24*
X14498860Y-21352040D03*
X16000000Y-21352040D03*
X17501140Y-21352040D03*
D25*
X16000000Y-17399800D03*
D10*
G36*
X17000760Y-19374650D02*
X16500380Y-20123950D01*
X15499620Y-20123950D01*
X14999240Y-19374650D01*
X17000760Y-19374650D01*
X17000760Y-19374650D01*
G37*
D26*
X28000000Y-48000000D03*
D27*
X30540000Y-48000000D03*
D17*
X39000000Y-48000000D03*
D18*
X36460000Y-48000000D03*
X33920000Y-48000000D03*
D28*
X9000000Y-42125000D03*
X9000000Y-47875000D03*
X13000000Y-47875000D03*
X13000000Y-42125000D03*
X6000000Y-47875000D03*
X6000000Y-42125000D03*
X2000000Y-42125000D03*
X2000000Y-47875000D03*
D13*
X84320000Y-28060000D03*
D14*
X84320000Y-25520000D03*
X84320000Y-22980000D03*
X84320000Y-20440000D03*
X84320000Y-17900000D03*
X84320000Y-15360000D03*
X84320000Y-12820000D03*
X84320000Y-10280000D03*
X84320000Y-7740000D03*
X84320000Y-5200000D03*
X84320000Y-2660000D03*
D13*
X91940000Y-2660000D03*
D14*
X91940000Y-5200000D03*
X91940000Y-7740000D03*
X91940000Y-10280000D03*
X91940000Y-12820000D03*
X91940000Y-15360000D03*
X91940000Y-17900000D03*
X91940000Y-20440000D03*
X91940000Y-22980000D03*
X91940000Y-25520000D03*
X91940000Y-28060000D03*
D13*
X2540000Y-2540000D03*
D14*
X2540000Y-5080000D03*
X2540000Y-7620000D03*
X2540000Y-10160000D03*
X2540000Y-12700000D03*
X2540000Y-15240000D03*
X2540000Y-17780000D03*
X2540000Y-20320000D03*
X2540000Y-22860000D03*
X2540000Y-25400000D03*
X2540000Y-27940000D03*
X2540000Y-30480000D03*
X2540000Y-33020000D03*
X2540000Y-35560000D03*
D13*
X10160000Y-22860000D03*
D14*
X10160000Y-20320000D03*
X10160000Y-17780000D03*
X10160000Y-15240000D03*
D21*
X45000000Y-37650000D03*
X45000000Y-40350000D03*
D29*
X34000000Y-37365000D03*
X34000000Y-40635000D03*
D21*
X42000000Y-37650000D03*
X42000000Y-40350000D03*
D30*
X23000000Y-28302000D03*
D31*
X23000000Y-21698000D03*
X20714000Y-21698000D03*
X25286000Y-21698000D03*
D17*
X29000000Y-44000000D03*
D18*
X31540000Y-44000000D03*
X34080000Y-44000000D03*
X36620000Y-44000000D03*
X39160000Y-44000000D03*
X41700000Y-44000000D03*
X44240000Y-44000000D03*
X46780000Y-44000000D03*
D13*
X30480000Y-2540000D03*
D14*
X30480000Y-5080000D03*
X30480000Y-7620000D03*
X30480000Y-10160000D03*
X30480000Y-12700000D03*
X30480000Y-15240000D03*
X30480000Y-17780000D03*
X30480000Y-20320000D03*
X30480000Y-22860000D03*
X30480000Y-25400000D03*
X30480000Y-27940000D03*
D13*
X38100000Y-2540000D03*
D14*
X38100000Y-5080000D03*
X38100000Y-7620000D03*
X38100000Y-10160000D03*
X38100000Y-12700000D03*
X38100000Y-15240000D03*
X38100000Y-17780000D03*
X38100000Y-20320000D03*
X38100000Y-22860000D03*
X38100000Y-25400000D03*
X38100000Y-27940000D03*
D13*
X97536000Y-97282000D03*
D14*
X97536000Y-94742000D03*
X97536000Y-92202000D03*
X97536000Y-89662000D03*
X97536000Y-87122000D03*
X97536000Y-84582000D03*
X97536000Y-82042000D03*
X97536000Y-79502000D03*
X97536000Y-76962000D03*
X97536000Y-74422000D03*
X97536000Y-71882000D03*
X97536000Y-69342000D03*
X97536000Y-66802000D03*
X97536000Y-64262000D03*
D13*
X23876000Y-76962000D03*
D14*
X23876000Y-79502000D03*
X23876000Y-82042000D03*
X23876000Y-84582000D03*
D13*
X92456000Y-64262000D03*
D14*
X92456000Y-66802000D03*
X92456000Y-69342000D03*
X92456000Y-71882000D03*
X92456000Y-74422000D03*
X92456000Y-76962000D03*
X92456000Y-79502000D03*
X92456000Y-82042000D03*
X92456000Y-84582000D03*
X92456000Y-87122000D03*
X92456000Y-89662000D03*
X92456000Y-92202000D03*
X92456000Y-94742000D03*
X92456000Y-97282000D03*
D13*
X26416000Y-84582000D03*
D14*
X26416000Y-82042000D03*
X26416000Y-79502000D03*
X26416000Y-76962000D03*
D32*
X7000000Y-35500000D03*
X29500000Y-35500000D03*
D33*
X38000000Y-38730000D03*
X38000000Y-37460000D03*
X38000000Y-40000000D03*
D34*
X37750000Y-34000000D03*
X34000000Y-30000000D03*
X34000000Y-34000000D03*
D35*
X87118000Y-25746000D03*
X86102000Y-30826000D03*
X86610000Y-23206000D03*
X83054000Y-30318000D03*
X92706000Y-30318000D03*
X89658000Y-23206000D03*
X90166000Y-30826000D03*
X89150000Y-25746000D03*
D36*
X84320000Y-28060000D02*
X85876000Y-28060000D01*
X86992000Y-29176000D02*
X86992000Y-32634000D01*
X85876000Y-28060000D02*
X86992000Y-29176000D01*
X84320000Y-25520000D02*
X86892000Y-25520000D01*
X86102000Y-30826000D02*
X84992000Y-31936000D01*
X84992000Y-31936000D02*
X84992000Y-32634000D01*
X86892000Y-25520000D02*
X87118000Y-25746000D01*
X84320000Y-22980000D02*
X86384000Y-22980000D01*
X82992000Y-30380000D02*
X82992000Y-32634000D01*
X86384000Y-22980000D02*
X86610000Y-23206000D01*
X83054000Y-30318000D02*
X82992000Y-30380000D01*
X81866000Y-22884000D02*
X80002000Y-22884000D01*
X84320000Y-10280000D02*
X83470000Y-10280000D01*
X83470000Y-10280000D02*
X82750000Y-11000000D01*
X82750000Y-11000000D02*
X82750000Y-22000000D01*
X82750000Y-22000000D02*
X81866000Y-22884000D01*
X84320000Y-7740000D02*
X83760000Y-7740000D01*
X83760000Y-7740000D02*
X82250000Y-9250000D01*
X82250000Y-9250000D02*
X82250000Y-20500000D01*
X82250000Y-20500000D02*
X81866000Y-20884000D01*
X81866000Y-20884000D02*
X80002000Y-20884000D01*
X84320000Y-5200000D02*
X83550000Y-5200000D01*
X83550000Y-5200000D02*
X81799998Y-6950002D01*
X81799998Y-6950002D02*
X81799998Y-18200002D01*
X81799998Y-18200002D02*
X81116000Y-18884000D01*
X81116000Y-18884000D02*
X80002000Y-18884000D01*
X80866000Y-16884000D02*
X80002000Y-16884000D01*
X81250000Y-16500000D02*
X80866000Y-16884000D01*
X81250000Y-4250000D02*
X81250000Y-16500000D01*
X84320000Y-2660000D02*
X82840000Y-2660000D01*
X82840000Y-2660000D02*
X81250000Y-4250000D01*
X94875000Y-16015000D02*
X91805000Y-12945000D01*
X94875000Y-24474996D02*
X94875000Y-16015000D01*
X95409004Y-25009000D02*
X94875000Y-24474996D01*
X96123000Y-25009000D02*
X95409004Y-25009000D01*
X92485000Y-15485000D02*
X94325002Y-17325002D01*
X94325002Y-17325002D02*
X94325002Y-26325002D01*
X91805000Y-15485000D02*
X92485000Y-15485000D01*
X95009000Y-27009000D02*
X96123000Y-27009000D01*
X94325002Y-26325002D02*
X95009000Y-27009000D01*
X93875000Y-20095000D02*
X91805000Y-18025000D01*
X93875000Y-28125000D02*
X93875000Y-20095000D01*
X94759000Y-29009000D02*
X93875000Y-28125000D01*
X96123000Y-29009000D02*
X94759000Y-29009000D01*
X93375000Y-21375000D02*
X93375000Y-29625000D01*
X92565000Y-20565000D02*
X93375000Y-21375000D01*
X91805000Y-20565000D02*
X92337000Y-20565000D01*
X91805000Y-20565000D02*
X92565000Y-20565000D01*
X93375000Y-29625000D02*
X94759000Y-31009000D01*
X94759000Y-31009000D02*
X96123000Y-31009000D01*
X91940000Y-22980000D02*
X89884000Y-22980000D01*
X92992000Y-30604000D02*
X92992000Y-32634000D01*
X92706000Y-30318000D02*
X92992000Y-30604000D01*
X89884000Y-22980000D02*
X89658000Y-23206000D01*
X91940000Y-25520000D02*
X89376000Y-25520000D01*
X90166000Y-30826000D02*
X90992000Y-31652000D01*
X89376000Y-25520000D02*
X89150000Y-25746000D01*
X90992000Y-31652000D02*
X90992000Y-32634000D01*
X91940000Y-28060000D02*
X89884000Y-28060000D01*
X89884000Y-28060000D02*
X88992000Y-28952000D01*
X88992000Y-28952000D02*
X88992000Y-32634000D01*
M02*
