M48
INCH,TZ
T1C0.016
T2C0.024
T3C0.031
T4C0.040
T5C0.051
%
G90
G05
T1
X32698Y-11936
X33898Y-12136
X34098Y-9136
X34298Y-10136
X35098Y-10136
X35298Y-9136
X35498Y-12136
X36498Y-11936
T2
X14961Y-14748
X14961Y-15248
X14961Y-15748
T3
X31497Y-6647
X31497Y-7435
X31497Y-8222
X31497Y-9009
X31497Y-9797
X31497Y-10584
X31497Y-11372
X31497Y-12159
X32678Y-12750
X33465Y-12750
X34253Y-12750
X35040Y-12750
X35828Y-12750
X36615Y-12750
X37796Y-6647
X37796Y-7435
X37796Y-8222
X37796Y-9009
X37796Y-9797
X37796Y-10584
X37796Y-11372
X37796Y-12159
T4
X1000Y-1000
X1000Y-2000
X1000Y-3000
X1000Y-4000
X1000Y-5000
X1000Y-6000
X1000Y-7000
X1000Y-8000
X1000Y-9000
X1000Y-10000
X1000Y-11000
X1000Y-12000
X1000Y-13000
X1000Y-14000
X4000Y-6000
X4000Y-7000
X4000Y-8000
X4000Y-9000
X9400Y-30300
X9400Y-31300
X9400Y-32300
X9400Y-33300
X10400Y-30300
X10400Y-31300
X10400Y-32300
X10400Y-33300
X11024Y-18898
X11400Y-30300
X11400Y-31300
X11400Y-32300
X11400Y-33300
X11417Y-17323
X12000Y-1000
X12000Y-2000
X12000Y-3000
X12000Y-4000
X12000Y-5000
X12000Y-6000
X12000Y-7000
X12000Y-8000
X12000Y-9000
X12000Y-10000
X12000Y-11000
X12024Y-18898
X12400Y-30300
X12400Y-31300
X12400Y-32300
X12400Y-33300
X12417Y-17323
X13354Y-18898
X13400Y-30300
X13400Y-31300
X13400Y-32300
X13400Y-33300
X13417Y-17323
X14354Y-18898
X14400Y-30300
X14400Y-31300
X14400Y-32300
X14400Y-33300
X14417Y-17323
X15000Y-1000
X15000Y-2000
X15000Y-3000
X15000Y-4000
X15000Y-5000
X15000Y-6000
X15000Y-7000
X15000Y-8000
X15000Y-9000
X15000Y-10000
X15000Y-11000
X15354Y-18898
X15400Y-30300
X15400Y-31300
X15400Y-32300
X15400Y-33300
X15417Y-17323
X16400Y-30300
X16400Y-31300
X16400Y-32300
X16400Y-33300
X16417Y-17323
X16898Y-18898
X17400Y-30300
X17400Y-31300
X17400Y-32300
X17400Y-33300
X17417Y-17323
X17898Y-18898
X18400Y-30300
X18400Y-31300
X18400Y-32300
X18400Y-33300
X18417Y-17323
X18898Y-18898
X19400Y-30300
X19400Y-31300
X19400Y-32300
X19400Y-33300
X20400Y-30300
X20400Y-31300
X20400Y-32300
X20400Y-33300
X21400Y-30300
X21400Y-31300
X21400Y-32300
X21400Y-33300
X22400Y-30300
X22400Y-31300
X22400Y-32300
X22400Y-33300
X23400Y-30300
X23400Y-31300
X23400Y-32300
X23400Y-33300
X24400Y-30300
X24400Y-31300
X24400Y-32300
X24400Y-33300
X25400Y-30300
X25400Y-31300
X25400Y-32300
X25400Y-33300
X26400Y-30300
X26400Y-31300
X26400Y-32300
X26400Y-33300
X27400Y-30300
X27400Y-31300
X27400Y-32300
X27400Y-33300
X28400Y-30300
X28400Y-31300
X28400Y-32300
X28400Y-33300
X29400Y-30300
X29400Y-31300
X29400Y-32300
X29400Y-33300
X30400Y-30300
X30400Y-31300
X30400Y-32300
X30400Y-33300
X31400Y-30300
X31400Y-31300
X31400Y-32300
X31400Y-33300
X32400Y-30300
X32400Y-31300
X32400Y-32300
X32400Y-33300
X33197Y-1047
X33197Y-2047
X33197Y-3047
X33197Y-4047
X33197Y-5047
X33197Y-6047
X33197Y-7047
X33197Y-8047
X33197Y-9047
X33197Y-10047
X33197Y-11047
X33400Y-30300
X33400Y-31300
X33400Y-32300
X33400Y-33300
X36197Y-1047
X36197Y-2047
X36197Y-3047
X36197Y-4047
X36197Y-5047
X36197Y-6047
X36197Y-7047
X36197Y-8047
X36197Y-9047
X36197Y-10047
X36197Y-11047
X36400Y-25300
X36400Y-26300
X36400Y-27300
X36400Y-28300
X36400Y-29300
X36400Y-30300
X36400Y-31300
X36400Y-32300
X36400Y-33300
X36400Y-34300
X36400Y-35300
X36400Y-36300
X36400Y-37300
X36400Y-38300
X38400Y-25300
X38400Y-26300
X38400Y-27300
X38400Y-28300
X38400Y-29300
X38400Y-30300
X38400Y-31300
X38400Y-32300
X38400Y-33300
X38400Y-34300
X38400Y-35300
X38400Y-36300
X38400Y-37300
X38400Y-38300
T5
X2756Y-13976
X11614Y-13976
T0
M30
