G04 #@! TF.FileFunction,Legend,Bot*
%FSLAX46Y46*%
G04 Gerber Fmt 4.6, Leading zero omitted, Abs format (unit mm)*
G04 Created by KiCad (PCBNEW 4.0.2+dfsg1-stable) date Thu 29 Sep 2016 01:56:18 PM PDT*
%MOMM*%
G01*
G04 APERTURE LIST*
%ADD10C,0.100000*%
%ADD11C,0.010000*%
%ADD12C,0.150000*%
G04 APERTURE END LIST*
D10*
D11*
X0Y-49000000D02*
G75*
G03X1000000Y-50000000I1000000J0D01*
G01*
X1000000Y-51000000D02*
G75*
G03X0Y-52000000I0J-1000000D01*
G01*
X24000000Y-50500000D02*
G75*
G03X23500000Y-50000000I-500000J0D01*
G01*
X23500000Y-51000000D02*
G75*
G03X24000000Y-50500000I0J500000D01*
G01*
X26000000Y-50500000D02*
G75*
G03X26500000Y-51000000I500000J0D01*
G01*
X26500000Y-50000000D02*
G75*
G03X26000000Y-50500000I0J-500000D01*
G01*
X49000000Y-50000000D02*
G75*
G03X50000000Y-49000000I0J1000000D01*
G01*
X50000000Y-51000000D02*
G75*
G03X51000000Y-50000000I0J1000000D01*
G01*
X1000000Y0D02*
G75*
G03X0Y-1000000I0J-1000000D01*
G01*
X52000000Y0D02*
G75*
G03X51000000Y-1000000I0J-1000000D01*
G01*
X50000000Y-1000000D02*
G75*
G03X49000000Y0I-1000000J0D01*
G01*
X51000000Y-26500000D02*
G75*
G03X50500000Y-26000000I-500000J0D01*
G01*
X50500000Y-26000000D02*
G75*
G03X50000000Y-26500000I0J-500000D01*
G01*
X50500000Y-24000000D02*
G75*
G03X51000000Y-23500000I0J500000D01*
G01*
X50000000Y-23500000D02*
G75*
G03X50500000Y-24000000I500000J0D01*
G01*
X77000000Y0D02*
G75*
G03X76000000Y-1000000I0J-1000000D01*
G01*
X75000000Y-1000000D02*
G75*
G03X74000000Y0I-1000000J0D01*
G01*
X76000000Y-20000000D02*
G75*
G03X75500000Y-19500000I-500000J0D01*
G01*
X75500000Y-19500000D02*
G75*
G03X75000000Y-20000000I0J-500000D01*
G01*
X75500000Y-17500000D02*
G75*
G03X76000000Y-17000000I0J500000D01*
G01*
X75000000Y-17000000D02*
G75*
G03X75500000Y-17500000I500000J0D01*
G01*
X75000000Y-37000000D02*
G75*
G03X76000000Y-38000000I1000000J0D01*
G01*
X76000000Y-36000000D02*
G75*
G03X77000000Y-37000000I1000000J0D01*
G01*
X89000000Y-37500000D02*
G75*
G03X89500000Y-38000000I500000J0D01*
G01*
X89500000Y-37000000D02*
G75*
G03X89000000Y-37500000I0J-500000D01*
G01*
X86500000Y-38000000D02*
G75*
G03X87000000Y-37500000I0J500000D01*
G01*
X87000000Y-37500000D02*
G75*
G03X86500000Y-37000000I-500000J0D01*
G01*
X100000000Y-39000000D02*
G75*
G03X99000000Y-38000000I-1000000J0D01*
G01*
X99000000Y-37000000D02*
G75*
G03X100000000Y-36000000I0J1000000D01*
G01*
X100000000Y-1000000D02*
G75*
G03X99000000Y0I-1000000J0D01*
G01*
X99000000Y-100000000D02*
G75*
G03X100000000Y-99000000I0J1000000D01*
G01*
X99000000Y-61000000D02*
G75*
G03X99500000Y-60500000I0J500000D01*
G01*
X99500000Y-60500000D02*
G75*
G03X99000000Y-60000000I-500000J0D01*
G01*
X89000000Y-60000000D02*
G75*
G03X88000000Y-61000000I0J-1000000D01*
G01*
X90000000Y-61000000D02*
G75*
G03X89000000Y-62000000I0J-1000000D01*
G01*
X88000000Y-75000000D02*
G75*
G03X89000000Y-74000000I0J1000000D01*
G01*
X87000000Y-74000000D02*
G75*
G03X88000000Y-73000000I0J1000000D01*
G01*
X22000000Y-74000000D02*
G75*
G03X21000000Y-75000000I0J-1000000D01*
G01*
X23000000Y-75000000D02*
G75*
G03X22000000Y-76000000I0J-1000000D01*
G01*
X21500000Y-80000000D02*
G75*
G03X22000000Y-79500000I0J500000D01*
G01*
X21000000Y-79500000D02*
G75*
G03X21500000Y-80000000I500000J0D01*
G01*
X21500000Y-81000000D02*
G75*
G03X21000000Y-81500000I0J-500000D01*
G01*
X22000000Y-81500000D02*
G75*
G03X21500000Y-81000000I-500000J0D01*
G01*
X21000000Y-86500000D02*
G75*
G03X22000000Y-87500000I1000000J0D01*
G01*
X22000000Y-85500000D02*
G75*
G03X23000000Y-86500000I1000000J0D01*
G01*
X89000000Y-87500000D02*
G75*
G03X88000000Y-86500000I-1000000J0D01*
G01*
X88000000Y-88500000D02*
G75*
G03X87000000Y-87500000I-1000000J0D01*
G01*
X88500000Y-99500000D02*
G75*
G03X89000000Y-99000000I0J500000D01*
G01*
X88000000Y-99000000D02*
G75*
G03X88500000Y-99500000I500000J0D01*
G01*
X50000000Y-23500000D02*
X50000000Y-1000000D01*
X1000000Y-50000000D02*
X23500000Y-50000000D01*
X23500000Y-51000000D02*
X1000000Y-51000000D01*
X26500000Y-50000000D02*
X49000000Y-50000000D01*
X50000000Y-51000000D02*
X26500000Y-51000000D01*
X51000000Y-50000000D02*
X51000000Y-26500000D01*
X50000000Y-26500000D02*
X50000000Y-49000000D01*
X51000000Y-23500000D02*
X51000000Y-1000000D01*
X1000000Y0D02*
X49000000Y0D01*
X0Y-49000000D02*
X0Y-1000000D01*
X0Y-100000000D02*
X0Y-52000000D01*
X52000000Y0D02*
X74000000Y0D01*
X76000000Y-36000000D02*
X76000000Y-20000000D01*
X75000000Y-20000000D02*
X75000000Y-37000000D01*
X76000000Y-1000000D02*
X76000000Y-17000000D01*
X75000000Y-17000000D02*
X75000000Y-1000000D01*
X100000000Y-39000000D02*
X100000000Y-99000000D01*
X99000000Y0D02*
X77000000Y0D01*
X100000000Y-36000000D02*
X100000000Y-1000000D01*
X76000000Y-38000000D02*
X86500000Y-38000000D01*
X86500000Y-37000000D02*
X77000000Y-37000000D01*
X89500000Y-38000000D02*
X99000000Y-38000000D01*
X99000000Y-37000000D02*
X89500000Y-37000000D01*
X99000000Y-100000000D02*
X0Y-100000000D01*
X90000000Y-61000000D02*
X99000000Y-61000000D01*
X99000000Y-60000000D02*
X89000000Y-60000000D01*
X88000000Y-88500000D02*
X88000000Y-99000000D01*
X89000000Y-99000000D02*
X89000000Y-87500000D01*
X22000000Y-87500000D02*
X87000000Y-87500000D01*
X22000000Y-85500000D02*
X22000000Y-81500000D01*
X88000000Y-86500000D02*
X23000000Y-86500000D01*
X21000000Y-81500000D02*
X21000000Y-86500000D01*
X22000000Y-79500000D02*
X22000000Y-76000000D01*
X21000000Y-75000000D02*
X21000000Y-79500000D01*
X22000000Y-74000000D02*
X87000000Y-74000000D01*
X88000000Y-75000000D02*
X23000000Y-75000000D01*
X89000000Y-62000000D02*
X89000000Y-74000000D01*
X88000000Y-61000000D02*
X88000000Y-73000000D01*
D12*
X93222857Y-25158095D02*
X93222857Y-25958095D01*
X93489524Y-25386667D01*
X93756191Y-25958095D01*
X93756191Y-25158095D01*
X94289524Y-25958095D02*
X94441905Y-25958095D01*
X94518096Y-25920000D01*
X94594286Y-25843810D01*
X94632381Y-25691429D01*
X94632381Y-25424762D01*
X94594286Y-25272381D01*
X94518096Y-25196190D01*
X94441905Y-25158095D01*
X94289524Y-25158095D01*
X94213334Y-25196190D01*
X94137143Y-25272381D01*
X94099048Y-25424762D01*
X94099048Y-25691429D01*
X94137143Y-25843810D01*
X94213334Y-25920000D01*
X94289524Y-25958095D01*
X94937143Y-25196190D02*
X95051429Y-25158095D01*
X95241905Y-25158095D01*
X95318095Y-25196190D01*
X95356191Y-25234286D01*
X95394286Y-25310476D01*
X95394286Y-25386667D01*
X95356191Y-25462857D01*
X95318095Y-25500952D01*
X95241905Y-25539048D01*
X95089524Y-25577143D01*
X95013333Y-25615238D01*
X94975238Y-25653333D01*
X94937143Y-25729524D01*
X94937143Y-25805714D01*
X94975238Y-25881905D01*
X95013333Y-25920000D01*
X95089524Y-25958095D01*
X95280000Y-25958095D01*
X95394286Y-25920000D01*
X95737143Y-25158095D02*
X95737143Y-25958095D01*
X93870477Y-20840000D02*
X93794286Y-20878095D01*
X93680001Y-20878095D01*
X93565715Y-20840000D01*
X93489524Y-20763810D01*
X93451429Y-20687619D01*
X93413334Y-20535238D01*
X93413334Y-20420952D01*
X93451429Y-20268571D01*
X93489524Y-20192381D01*
X93565715Y-20116190D01*
X93680001Y-20078095D01*
X93756191Y-20078095D01*
X93870477Y-20116190D01*
X93908572Y-20154286D01*
X93908572Y-20420952D01*
X93756191Y-20420952D01*
X94251429Y-20078095D02*
X94251429Y-20878095D01*
X94708572Y-20078095D01*
X94708572Y-20878095D01*
X95089524Y-20078095D02*
X95089524Y-20878095D01*
X95280000Y-20878095D01*
X95394286Y-20840000D01*
X95470477Y-20763810D01*
X95508572Y-20687619D01*
X95546667Y-20535238D01*
X95546667Y-20420952D01*
X95508572Y-20268571D01*
X95470477Y-20192381D01*
X95394286Y-20116190D01*
X95280000Y-20078095D01*
X95089524Y-20078095D01*
X81341905Y-2298095D02*
X81075238Y-2679048D01*
X80884762Y-2298095D02*
X80884762Y-3098095D01*
X81189524Y-3098095D01*
X81265715Y-3060000D01*
X81303810Y-3021905D01*
X81341905Y-2945714D01*
X81341905Y-2831429D01*
X81303810Y-2755238D01*
X81265715Y-2717143D01*
X81189524Y-2679048D01*
X80884762Y-2679048D01*
X81646667Y-2336190D02*
X81760953Y-2298095D01*
X81951429Y-2298095D01*
X82027619Y-2336190D01*
X82065715Y-2374286D01*
X82103810Y-2450476D01*
X82103810Y-2526667D01*
X82065715Y-2602857D01*
X82027619Y-2640952D01*
X81951429Y-2679048D01*
X81799048Y-2717143D01*
X81722857Y-2755238D01*
X81684762Y-2793333D01*
X81646667Y-2869524D01*
X81646667Y-2945714D01*
X81684762Y-3021905D01*
X81722857Y-3060000D01*
X81799048Y-3098095D01*
X81989524Y-3098095D01*
X82103810Y-3060000D01*
X82332381Y-3098095D02*
X82789524Y-3098095D01*
X82560953Y-2298095D02*
X82560953Y-3098095D01*
X80789524Y-5066667D02*
X81170476Y-5066667D01*
X80713333Y-4838095D02*
X80980000Y-5638095D01*
X81246667Y-4838095D01*
X81513333Y-4838095D02*
X81513333Y-5638095D01*
X81703809Y-5638095D01*
X81818095Y-5600000D01*
X81894286Y-5523810D01*
X81932381Y-5447619D01*
X81970476Y-5295238D01*
X81970476Y-5180952D01*
X81932381Y-5028571D01*
X81894286Y-4952381D01*
X81818095Y-4876190D01*
X81703809Y-4838095D01*
X81513333Y-4838095D01*
X82770476Y-4914286D02*
X82732381Y-4876190D01*
X82618095Y-4838095D01*
X82541905Y-4838095D01*
X82427619Y-4876190D01*
X82351428Y-4952381D01*
X82313333Y-5028571D01*
X82275238Y-5180952D01*
X82275238Y-5295238D01*
X82313333Y-5447619D01*
X82351428Y-5523810D01*
X82427619Y-5600000D01*
X82541905Y-5638095D01*
X82618095Y-5638095D01*
X82732381Y-5600000D01*
X82770476Y-5561905D01*
X81189524Y-7797143D02*
X81456191Y-7797143D01*
X81570477Y-7378095D02*
X81189524Y-7378095D01*
X81189524Y-8178095D01*
X81570477Y-8178095D01*
X81913334Y-7378095D02*
X81913334Y-8178095D01*
X82370477Y-7378095D01*
X82370477Y-8178095D01*
X81627619Y-9918095D02*
X81170476Y-9918095D01*
X81399047Y-9918095D02*
X81399047Y-10718095D01*
X81322857Y-10603810D01*
X81246666Y-10527619D01*
X81170476Y-10489524D01*
X82313333Y-10718095D02*
X82160952Y-10718095D01*
X82084762Y-10680000D01*
X82046667Y-10641905D01*
X81970476Y-10527619D01*
X81932381Y-10375238D01*
X81932381Y-10070476D01*
X81970476Y-9994286D01*
X82008571Y-9956190D01*
X82084762Y-9918095D01*
X82237143Y-9918095D01*
X82313333Y-9956190D01*
X82351429Y-9994286D01*
X82389524Y-10070476D01*
X82389524Y-10260952D01*
X82351429Y-10337143D01*
X82313333Y-10375238D01*
X82237143Y-10413333D01*
X82084762Y-10413333D01*
X82008571Y-10375238D01*
X81970476Y-10337143D01*
X81932381Y-10260952D01*
X81627619Y-12458095D02*
X81170476Y-12458095D01*
X81399047Y-12458095D02*
X81399047Y-13258095D01*
X81322857Y-13143810D01*
X81246666Y-13067619D01*
X81170476Y-13029524D01*
X82313333Y-12991429D02*
X82313333Y-12458095D01*
X82122857Y-13296190D02*
X81932381Y-12724762D01*
X82427619Y-12724762D01*
X81627619Y-14998095D02*
X81170476Y-14998095D01*
X81399047Y-14998095D02*
X81399047Y-15798095D01*
X81322857Y-15683810D01*
X81246666Y-15607619D01*
X81170476Y-15569524D01*
X81932381Y-15721905D02*
X81970476Y-15760000D01*
X82046667Y-15798095D01*
X82237143Y-15798095D01*
X82313333Y-15760000D01*
X82351429Y-15721905D01*
X82389524Y-15645714D01*
X82389524Y-15569524D01*
X82351429Y-15455238D01*
X81894286Y-14998095D01*
X82389524Y-14998095D01*
X81627619Y-17538095D02*
X81170476Y-17538095D01*
X81399047Y-17538095D02*
X81399047Y-18338095D01*
X81322857Y-18223810D01*
X81246666Y-18147619D01*
X81170476Y-18109524D01*
X81894286Y-18338095D02*
X82389524Y-18338095D01*
X82122857Y-18033333D01*
X82237143Y-18033333D01*
X82313333Y-17995238D01*
X82351429Y-17957143D01*
X82389524Y-17880952D01*
X82389524Y-17690476D01*
X82351429Y-17614286D01*
X82313333Y-17576190D01*
X82237143Y-17538095D01*
X82008571Y-17538095D01*
X81932381Y-17576190D01*
X81894286Y-17614286D01*
X80827619Y-20878095D02*
X81094286Y-20078095D01*
X81360953Y-20878095D01*
X81970476Y-20116190D02*
X81894286Y-20078095D01*
X81741905Y-20078095D01*
X81665714Y-20116190D01*
X81627619Y-20154286D01*
X81589524Y-20230476D01*
X81589524Y-20459048D01*
X81627619Y-20535238D01*
X81665714Y-20573333D01*
X81741905Y-20611429D01*
X81894286Y-20611429D01*
X81970476Y-20573333D01*
X82656190Y-20116190D02*
X82580000Y-20078095D01*
X82427619Y-20078095D01*
X82351428Y-20116190D01*
X82313333Y-20154286D01*
X82275238Y-20230476D01*
X82275238Y-20459048D01*
X82313333Y-20535238D01*
X82351428Y-20573333D01*
X82427619Y-20611429D01*
X82580000Y-20611429D01*
X82656190Y-20573333D01*
X81227619Y-22694286D02*
X81189524Y-22656190D01*
X81075238Y-22618095D01*
X80999048Y-22618095D01*
X80884762Y-22656190D01*
X80808571Y-22732381D01*
X80770476Y-22808571D01*
X80732381Y-22960952D01*
X80732381Y-23075238D01*
X80770476Y-23227619D01*
X80808571Y-23303810D01*
X80884762Y-23380000D01*
X80999048Y-23418095D01*
X81075238Y-23418095D01*
X81189524Y-23380000D01*
X81227619Y-23341905D01*
X81532381Y-22656190D02*
X81646667Y-22618095D01*
X81837143Y-22618095D01*
X81913333Y-22656190D01*
X81951429Y-22694286D01*
X81989524Y-22770476D01*
X81989524Y-22846667D01*
X81951429Y-22922857D01*
X81913333Y-22960952D01*
X81837143Y-22999048D01*
X81684762Y-23037143D01*
X81608571Y-23075238D01*
X81570476Y-23113333D01*
X81532381Y-23189524D01*
X81532381Y-23265714D01*
X81570476Y-23341905D01*
X81608571Y-23380000D01*
X81684762Y-23418095D01*
X81875238Y-23418095D01*
X81989524Y-23380000D01*
X82484762Y-23418095D02*
X82637143Y-23418095D01*
X82713334Y-23380000D01*
X82789524Y-23303810D01*
X82827619Y-23151429D01*
X82827619Y-22884762D01*
X82789524Y-22732381D01*
X82713334Y-22656190D01*
X82637143Y-22618095D01*
X82484762Y-22618095D01*
X82408572Y-22656190D01*
X82332381Y-22732381D01*
X82294286Y-22884762D01*
X82294286Y-23151429D01*
X82332381Y-23303810D01*
X82408572Y-23380000D01*
X82484762Y-23418095D01*
X80522857Y-25158095D02*
X80522857Y-25958095D01*
X80789524Y-25386667D01*
X81056191Y-25958095D01*
X81056191Y-25158095D01*
X81437143Y-25158095D02*
X81437143Y-25958095D01*
X81780000Y-25196190D02*
X81894286Y-25158095D01*
X82084762Y-25158095D01*
X82160952Y-25196190D01*
X82199048Y-25234286D01*
X82237143Y-25310476D01*
X82237143Y-25386667D01*
X82199048Y-25462857D01*
X82160952Y-25500952D01*
X82084762Y-25539048D01*
X81932381Y-25577143D01*
X81856190Y-25615238D01*
X81818095Y-25653333D01*
X81780000Y-25729524D01*
X81780000Y-25805714D01*
X81818095Y-25881905D01*
X81856190Y-25920000D01*
X81932381Y-25958095D01*
X82122857Y-25958095D01*
X82237143Y-25920000D01*
X82732381Y-25958095D02*
X82884762Y-25958095D01*
X82960953Y-25920000D01*
X83037143Y-25843810D01*
X83075238Y-25691429D01*
X83075238Y-25424762D01*
X83037143Y-25272381D01*
X82960953Y-25196190D01*
X82884762Y-25158095D01*
X82732381Y-25158095D01*
X82656191Y-25196190D01*
X82580000Y-25272381D01*
X82541905Y-25424762D01*
X82541905Y-25691429D01*
X82580000Y-25843810D01*
X82656191Y-25920000D01*
X82732381Y-25958095D01*
X81627619Y-27698095D02*
X81780000Y-27698095D01*
X81856191Y-27736190D01*
X81894286Y-27774286D01*
X81970477Y-27888571D01*
X82008572Y-28040952D01*
X82008572Y-28345714D01*
X81970477Y-28421905D01*
X81932381Y-28460000D01*
X81856191Y-28498095D01*
X81703810Y-28498095D01*
X81627619Y-28460000D01*
X81589524Y-28421905D01*
X81551429Y-28345714D01*
X81551429Y-28155238D01*
X81589524Y-28079048D01*
X81627619Y-28040952D01*
X81703810Y-28002857D01*
X81856191Y-28002857D01*
X81932381Y-28040952D01*
X81970477Y-28079048D01*
X82008572Y-28155238D01*
X94327619Y-27698095D02*
X93870476Y-27698095D01*
X94099047Y-27698095D02*
X94099047Y-28498095D01*
X94022857Y-28383810D01*
X93946666Y-28307619D01*
X93870476Y-28269524D01*
X94822857Y-28498095D02*
X94899048Y-28498095D01*
X94975238Y-28460000D01*
X95013333Y-28421905D01*
X95051429Y-28345714D01*
X95089524Y-28193333D01*
X95089524Y-28002857D01*
X95051429Y-27850476D01*
X95013333Y-27774286D01*
X94975238Y-27736190D01*
X94899048Y-27698095D01*
X94822857Y-27698095D01*
X94746667Y-27736190D01*
X94708571Y-27774286D01*
X94670476Y-27850476D01*
X94632381Y-28002857D01*
X94632381Y-28193333D01*
X94670476Y-28345714D01*
X94708571Y-28421905D01*
X94746667Y-28460000D01*
X94822857Y-28498095D01*
X94003810Y-22694286D02*
X93965715Y-22656190D01*
X93851429Y-22618095D01*
X93775239Y-22618095D01*
X93660953Y-22656190D01*
X93584762Y-22732381D01*
X93546667Y-22808571D01*
X93508572Y-22960952D01*
X93508572Y-23075238D01*
X93546667Y-23227619D01*
X93584762Y-23303810D01*
X93660953Y-23380000D01*
X93775239Y-23418095D01*
X93851429Y-23418095D01*
X93965715Y-23380000D01*
X94003810Y-23341905D01*
X94727620Y-22618095D02*
X94346667Y-22618095D01*
X94346667Y-23418095D01*
X94994286Y-22618095D02*
X94994286Y-23418095D01*
X95451429Y-22618095D02*
X95108572Y-23075238D01*
X95451429Y-23418095D02*
X94994286Y-22960952D01*
X94327619Y-17538095D02*
X93870476Y-17538095D01*
X94099047Y-17538095D02*
X94099047Y-18338095D01*
X94022857Y-18223810D01*
X93946666Y-18147619D01*
X93870476Y-18109524D01*
X95051429Y-18338095D02*
X94670476Y-18338095D01*
X94632381Y-17957143D01*
X94670476Y-17995238D01*
X94746667Y-18033333D01*
X94937143Y-18033333D01*
X95013333Y-17995238D01*
X95051429Y-17957143D01*
X95089524Y-17880952D01*
X95089524Y-17690476D01*
X95051429Y-17614286D01*
X95013333Y-17576190D01*
X94937143Y-17538095D01*
X94746667Y-17538095D01*
X94670476Y-17576190D01*
X94632381Y-17614286D01*
X94251429Y-15721905D02*
X94289524Y-15760000D01*
X94365715Y-15798095D01*
X94556191Y-15798095D01*
X94632381Y-15760000D01*
X94670477Y-15721905D01*
X94708572Y-15645714D01*
X94708572Y-15569524D01*
X94670477Y-15455238D01*
X94213334Y-14998095D01*
X94708572Y-14998095D01*
X94441905Y-13258095D02*
X94518096Y-13258095D01*
X94594286Y-13220000D01*
X94632381Y-13181905D01*
X94670477Y-13105714D01*
X94708572Y-12953333D01*
X94708572Y-12762857D01*
X94670477Y-12610476D01*
X94632381Y-12534286D01*
X94594286Y-12496190D01*
X94518096Y-12458095D01*
X94441905Y-12458095D01*
X94365715Y-12496190D01*
X94327619Y-12534286D01*
X94289524Y-12610476D01*
X94251429Y-12762857D01*
X94251429Y-12953333D01*
X94289524Y-13105714D01*
X94327619Y-13181905D01*
X94365715Y-13220000D01*
X94441905Y-13258095D01*
X94632381Y-10451429D02*
X94632381Y-9918095D01*
X94441905Y-10756190D02*
X94251429Y-10184762D01*
X94746667Y-10184762D01*
X94670477Y-8178095D02*
X94289524Y-8178095D01*
X94251429Y-7797143D01*
X94289524Y-7835238D01*
X94365715Y-7873333D01*
X94556191Y-7873333D01*
X94632381Y-7835238D01*
X94670477Y-7797143D01*
X94708572Y-7720952D01*
X94708572Y-7530476D01*
X94670477Y-7454286D01*
X94632381Y-7416190D01*
X94556191Y-7378095D01*
X94365715Y-7378095D01*
X94289524Y-7416190D01*
X94251429Y-7454286D01*
X93946667Y-4838095D02*
X93680000Y-5219048D01*
X93489524Y-4838095D02*
X93489524Y-5638095D01*
X93794286Y-5638095D01*
X93870477Y-5600000D01*
X93908572Y-5561905D01*
X93946667Y-5485714D01*
X93946667Y-5371429D01*
X93908572Y-5295238D01*
X93870477Y-5257143D01*
X93794286Y-5219048D01*
X93489524Y-5219048D01*
X94213334Y-5638095D02*
X94746667Y-4838095D01*
X94746667Y-5638095D02*
X94213334Y-4838095D01*
X95051429Y-4838095D02*
X95051429Y-5638095D01*
X95241905Y-5638095D01*
X95356191Y-5600000D01*
X95432382Y-5523810D01*
X95470477Y-5447619D01*
X95508572Y-5295238D01*
X95508572Y-5180952D01*
X95470477Y-5028571D01*
X95432382Y-4952381D01*
X95356191Y-4876190D01*
X95241905Y-4838095D01*
X95051429Y-4838095D01*
X93470476Y-3098095D02*
X93927619Y-3098095D01*
X93699048Y-2298095D02*
X93699048Y-3098095D01*
X94118096Y-3098095D02*
X94651429Y-2298095D01*
X94651429Y-3098095D02*
X94118096Y-2298095D01*
X94956191Y-2298095D02*
X94956191Y-3098095D01*
X95146667Y-3098095D01*
X95260953Y-3060000D01*
X95337144Y-2983810D01*
X95375239Y-2907619D01*
X95413334Y-2755238D01*
X95413334Y-2640952D01*
X95375239Y-2488571D01*
X95337144Y-2412381D01*
X95260953Y-2336190D01*
X95146667Y-2298095D01*
X94956191Y-2298095D01*
X85590000Y-26790000D02*
X85590000Y-1390000D01*
X85590000Y-1390000D02*
X83050000Y-1390000D01*
X83050000Y-1390000D02*
X83050000Y-26790000D01*
X85870000Y-29610000D02*
X85870000Y-28060000D01*
X85590000Y-26790000D02*
X83050000Y-26790000D01*
X82770000Y-28060000D02*
X82770000Y-29610000D01*
X82770000Y-29610000D02*
X85870000Y-29610000D01*
X90670000Y-3930000D02*
X90670000Y-29330000D01*
X90670000Y-29330000D02*
X93210000Y-29330000D01*
X93210000Y-29330000D02*
X93210000Y-3930000D01*
X90390000Y-1110000D02*
X90390000Y-2660000D01*
X90670000Y-3930000D02*
X93210000Y-3930000D01*
X93490000Y-2660000D02*
X93490000Y-1110000D01*
X93490000Y-1110000D02*
X90390000Y-1110000D01*
X98806000Y-96012000D02*
X98806000Y-62992000D01*
X98806000Y-62992000D02*
X96266000Y-62992000D01*
X96266000Y-62992000D02*
X96266000Y-96012000D01*
X95986000Y-98832000D02*
X95986000Y-97282000D01*
X96266000Y-96012000D02*
X98806000Y-96012000D01*
X99086000Y-97282000D02*
X99086000Y-98832000D01*
X99086000Y-98832000D02*
X95986000Y-98832000D01*
X22606000Y-78232000D02*
X22606000Y-85852000D01*
X25146000Y-78232000D02*
X25146000Y-85852000D01*
X25426000Y-75412000D02*
X25426000Y-76962000D01*
X22606000Y-85852000D02*
X25146000Y-85852000D01*
X25146000Y-78232000D02*
X22606000Y-78232000D01*
X22326000Y-76962000D02*
X22326000Y-75412000D01*
X22326000Y-75412000D02*
X25426000Y-75412000D01*
X85058095Y-33612381D02*
X85058095Y-32612381D01*
X84677142Y-32612381D01*
X84581904Y-32660000D01*
X84534285Y-32707619D01*
X84486666Y-32802857D01*
X84486666Y-32945714D01*
X84534285Y-33040952D01*
X84581904Y-33088571D01*
X84677142Y-33136190D01*
X85058095Y-33136190D01*
X83915238Y-33040952D02*
X84010476Y-32993333D01*
X84058095Y-32945714D01*
X84105714Y-32850476D01*
X84105714Y-32802857D01*
X84058095Y-32707619D01*
X84010476Y-32660000D01*
X83915238Y-32612381D01*
X83724761Y-32612381D01*
X83629523Y-32660000D01*
X83581904Y-32707619D01*
X83534285Y-32802857D01*
X83534285Y-32850476D01*
X83581904Y-32945714D01*
X83629523Y-32993333D01*
X83724761Y-33040952D01*
X83915238Y-33040952D01*
X84010476Y-33088571D01*
X84058095Y-33136190D01*
X84105714Y-33231429D01*
X84105714Y-33421905D01*
X84058095Y-33517143D01*
X84010476Y-33564762D01*
X83915238Y-33612381D01*
X83724761Y-33612381D01*
X83629523Y-33564762D01*
X83581904Y-33517143D01*
X83534285Y-33421905D01*
X83534285Y-33231429D01*
X83581904Y-33136190D01*
X83629523Y-33088571D01*
X83724761Y-33040952D01*
X95738095Y-1452381D02*
X95738095Y-452381D01*
X95357142Y-452381D01*
X95261904Y-500000D01*
X95214285Y-547619D01*
X95166666Y-642857D01*
X95166666Y-785714D01*
X95214285Y-880952D01*
X95261904Y-928571D01*
X95357142Y-976190D01*
X95738095Y-976190D01*
X94690476Y-1452381D02*
X94500000Y-1452381D01*
X94404761Y-1404762D01*
X94357142Y-1357143D01*
X94261904Y-1214286D01*
X94214285Y-1023810D01*
X94214285Y-642857D01*
X94261904Y-547619D01*
X94309523Y-500000D01*
X94404761Y-452381D01*
X94595238Y-452381D01*
X94690476Y-500000D01*
X94738095Y-547619D01*
X94785714Y-642857D01*
X94785714Y-880952D01*
X94738095Y-976190D01*
X94690476Y-1023810D01*
X94595238Y-1071429D01*
X94404761Y-1071429D01*
X94309523Y-1023810D01*
X94261904Y-976190D01*
X94214285Y-880952D01*
X99214286Y-62452381D02*
X99214286Y-61452381D01*
X98833333Y-61452381D01*
X98738095Y-61500000D01*
X98690476Y-61547619D01*
X98642857Y-61642857D01*
X98642857Y-61785714D01*
X98690476Y-61880952D01*
X98738095Y-61928571D01*
X98833333Y-61976190D01*
X99214286Y-61976190D01*
X97690476Y-62452381D02*
X98261905Y-62452381D01*
X97976191Y-62452381D02*
X97976191Y-61452381D01*
X98071429Y-61595238D01*
X98166667Y-61690476D01*
X98261905Y-61738095D01*
X97309524Y-61547619D02*
X97261905Y-61500000D01*
X97166667Y-61452381D01*
X96928571Y-61452381D01*
X96833333Y-61500000D01*
X96785714Y-61547619D01*
X96738095Y-61642857D01*
X96738095Y-61738095D01*
X96785714Y-61880952D01*
X97357143Y-62452381D01*
X96738095Y-62452381D01*
X25214286Y-86452381D02*
X25214286Y-85452381D01*
X24833333Y-85452381D01*
X24738095Y-85500000D01*
X24690476Y-85547619D01*
X24642857Y-85642857D01*
X24642857Y-85785714D01*
X24690476Y-85880952D01*
X24738095Y-85928571D01*
X24833333Y-85976190D01*
X25214286Y-85976190D01*
X23690476Y-86452381D02*
X24261905Y-86452381D01*
X23976191Y-86452381D02*
X23976191Y-85452381D01*
X24071429Y-85595238D01*
X24166667Y-85690476D01*
X24261905Y-85738095D01*
X22785714Y-85452381D02*
X23261905Y-85452381D01*
X23309524Y-85928571D01*
X23261905Y-85880952D01*
X23166667Y-85833333D01*
X22928571Y-85833333D01*
X22833333Y-85880952D01*
X22785714Y-85928571D01*
X22738095Y-86023810D01*
X22738095Y-86261905D01*
X22785714Y-86357143D01*
X22833333Y-86404762D01*
X22928571Y-86452381D01*
X23166667Y-86452381D01*
X23261905Y-86404762D01*
X23309524Y-86357143D01*
M02*
