G04 #@! TF.FileFunction,Soldermask,Top*
%FSLAX46Y46*%
G04 Gerber Fmt 4.6, Leading zero omitted, Abs format (unit mm)*
G04 Created by KiCad (PCBNEW 4.0.2+dfsg1-stable) date Thu 29 Sep 2016 01:56:18 PM PDT*
%MOMM*%
G01*
G04 APERTURE LIST*
%ADD10C,0.100000*%
%ADD11C,0.010000*%
%ADD12R,2.432000X2.127200*%
%ADD13O,2.432000X2.127200*%
%ADD14R,0.900380X2.701240*%
%ADD15R,2.398980X2.899360*%
%ADD16C,1.299160*%
%ADD17R,2.127200X2.432000*%
%ADD18O,2.127200X2.432000*%
%ADD19C,1.750000*%
%ADD20R,1.750000X1.750000*%
%ADD21R,1.700000X1.900000*%
%ADD22R,3.900000X3.900000*%
%ADD23R,1.900000X1.700000*%
%ADD24R,1.400760X2.901900*%
%ADD25R,2.398980X4.400500*%
%ADD26R,2.432000X2.432000*%
%ADD27O,2.432000X2.432000*%
%ADD28R,1.400000X3.150000*%
%ADD29R,1.620000X1.310000*%
%ADD30R,4.057600X2.432000*%
%ADD31R,1.416000X2.432000*%
%ADD32C,3.400000*%
%ADD33C,3.100000*%
%ADD34O,1.901140X1.299160*%
%ADD35R,2.100000X2.400000*%
G04 APERTURE END LIST*
D10*
D11*
X0Y-49000000D02*
G75*
G03X1000000Y-50000000I1000000J0D01*
G01*
X1000000Y-51000000D02*
G75*
G03X0Y-52000000I0J-1000000D01*
G01*
X24000000Y-50500000D02*
G75*
G03X23500000Y-50000000I-500000J0D01*
G01*
X23500000Y-51000000D02*
G75*
G03X24000000Y-50500000I0J500000D01*
G01*
X26000000Y-50500000D02*
G75*
G03X26500000Y-51000000I500000J0D01*
G01*
X26500000Y-50000000D02*
G75*
G03X26000000Y-50500000I0J-500000D01*
G01*
X49000000Y-50000000D02*
G75*
G03X50000000Y-49000000I0J1000000D01*
G01*
X50000000Y-51000000D02*
G75*
G03X51000000Y-50000000I0J1000000D01*
G01*
X1000000Y0D02*
G75*
G03X0Y-1000000I0J-1000000D01*
G01*
X52000000Y0D02*
G75*
G03X51000000Y-1000000I0J-1000000D01*
G01*
X50000000Y-1000000D02*
G75*
G03X49000000Y0I-1000000J0D01*
G01*
X51000000Y-26500000D02*
G75*
G03X50500000Y-26000000I-500000J0D01*
G01*
X50500000Y-26000000D02*
G75*
G03X50000000Y-26500000I0J-500000D01*
G01*
X50500000Y-24000000D02*
G75*
G03X51000000Y-23500000I0J500000D01*
G01*
X50000000Y-23500000D02*
G75*
G03X50500000Y-24000000I500000J0D01*
G01*
X77000000Y0D02*
G75*
G03X76000000Y-1000000I0J-1000000D01*
G01*
X75000000Y-1000000D02*
G75*
G03X74000000Y0I-1000000J0D01*
G01*
X76000000Y-20000000D02*
G75*
G03X75500000Y-19500000I-500000J0D01*
G01*
X75500000Y-19500000D02*
G75*
G03X75000000Y-20000000I0J-500000D01*
G01*
X75500000Y-17500000D02*
G75*
G03X76000000Y-17000000I0J500000D01*
G01*
X75000000Y-17000000D02*
G75*
G03X75500000Y-17500000I500000J0D01*
G01*
X75000000Y-37000000D02*
G75*
G03X76000000Y-38000000I1000000J0D01*
G01*
X76000000Y-36000000D02*
G75*
G03X77000000Y-37000000I1000000J0D01*
G01*
X89000000Y-37500000D02*
G75*
G03X89500000Y-38000000I500000J0D01*
G01*
X89500000Y-37000000D02*
G75*
G03X89000000Y-37500000I0J-500000D01*
G01*
X86500000Y-38000000D02*
G75*
G03X87000000Y-37500000I0J500000D01*
G01*
X87000000Y-37500000D02*
G75*
G03X86500000Y-37000000I-500000J0D01*
G01*
X100000000Y-39000000D02*
G75*
G03X99000000Y-38000000I-1000000J0D01*
G01*
X99000000Y-37000000D02*
G75*
G03X100000000Y-36000000I0J1000000D01*
G01*
X100000000Y-1000000D02*
G75*
G03X99000000Y0I-1000000J0D01*
G01*
X99000000Y-100000000D02*
G75*
G03X100000000Y-99000000I0J1000000D01*
G01*
X99000000Y-61000000D02*
G75*
G03X99500000Y-60500000I0J500000D01*
G01*
X99500000Y-60500000D02*
G75*
G03X99000000Y-60000000I-500000J0D01*
G01*
X89000000Y-60000000D02*
G75*
G03X88000000Y-61000000I0J-1000000D01*
G01*
X90000000Y-61000000D02*
G75*
G03X89000000Y-62000000I0J-1000000D01*
G01*
X88000000Y-75000000D02*
G75*
G03X89000000Y-74000000I0J1000000D01*
G01*
X87000000Y-74000000D02*
G75*
G03X88000000Y-73000000I0J1000000D01*
G01*
X22000000Y-74000000D02*
G75*
G03X21000000Y-75000000I0J-1000000D01*
G01*
X23000000Y-75000000D02*
G75*
G03X22000000Y-76000000I0J-1000000D01*
G01*
X21500000Y-80000000D02*
G75*
G03X22000000Y-79500000I0J500000D01*
G01*
X21000000Y-79500000D02*
G75*
G03X21500000Y-80000000I500000J0D01*
G01*
X21500000Y-81000000D02*
G75*
G03X21000000Y-81500000I0J-500000D01*
G01*
X22000000Y-81500000D02*
G75*
G03X21500000Y-81000000I-500000J0D01*
G01*
X21000000Y-86500000D02*
G75*
G03X22000000Y-87500000I1000000J0D01*
G01*
X22000000Y-85500000D02*
G75*
G03X23000000Y-86500000I1000000J0D01*
G01*
X89000000Y-87500000D02*
G75*
G03X88000000Y-86500000I-1000000J0D01*
G01*
X88000000Y-88500000D02*
G75*
G03X87000000Y-87500000I-1000000J0D01*
G01*
X88500000Y-99500000D02*
G75*
G03X89000000Y-99000000I0J500000D01*
G01*
X88000000Y-99000000D02*
G75*
G03X88500000Y-99500000I500000J0D01*
G01*
X50000000Y-23500000D02*
X50000000Y-1000000D01*
X1000000Y-50000000D02*
X23500000Y-50000000D01*
X23500000Y-51000000D02*
X1000000Y-51000000D01*
X26500000Y-50000000D02*
X49000000Y-50000000D01*
X50000000Y-51000000D02*
X26500000Y-51000000D01*
X51000000Y-50000000D02*
X51000000Y-26500000D01*
X50000000Y-26500000D02*
X50000000Y-49000000D01*
X51000000Y-23500000D02*
X51000000Y-1000000D01*
X1000000Y0D02*
X49000000Y0D01*
X0Y-49000000D02*
X0Y-1000000D01*
X0Y-100000000D02*
X0Y-52000000D01*
X52000000Y0D02*
X74000000Y0D01*
X76000000Y-36000000D02*
X76000000Y-20000000D01*
X75000000Y-20000000D02*
X75000000Y-37000000D01*
X76000000Y-1000000D02*
X76000000Y-17000000D01*
X75000000Y-17000000D02*
X75000000Y-1000000D01*
X100000000Y-39000000D02*
X100000000Y-99000000D01*
X99000000Y0D02*
X77000000Y0D01*
X100000000Y-36000000D02*
X100000000Y-1000000D01*
X76000000Y-38000000D02*
X86500000Y-38000000D01*
X86500000Y-37000000D02*
X77000000Y-37000000D01*
X89500000Y-38000000D02*
X99000000Y-38000000D01*
X99000000Y-37000000D02*
X89500000Y-37000000D01*
X99000000Y-100000000D02*
X0Y-100000000D01*
X90000000Y-61000000D02*
X99000000Y-61000000D01*
X99000000Y-60000000D02*
X89000000Y-60000000D01*
X88000000Y-88500000D02*
X88000000Y-99000000D01*
X89000000Y-99000000D02*
X89000000Y-87500000D01*
X22000000Y-87500000D02*
X87000000Y-87500000D01*
X22000000Y-85500000D02*
X22000000Y-81500000D01*
X88000000Y-86500000D02*
X23000000Y-86500000D01*
X21000000Y-81500000D02*
X21000000Y-86500000D01*
X22000000Y-79500000D02*
X22000000Y-76000000D01*
X21000000Y-75000000D02*
X21000000Y-79500000D01*
X22000000Y-74000000D02*
X87000000Y-74000000D01*
X88000000Y-75000000D02*
X23000000Y-75000000D01*
X89000000Y-62000000D02*
X89000000Y-74000000D01*
X88000000Y-61000000D02*
X88000000Y-73000000D01*
D12*
X84836000Y-84582000D03*
D13*
X84836000Y-82042000D03*
X84836000Y-79502000D03*
X84836000Y-76962000D03*
D12*
X82296000Y-84582000D03*
D13*
X82296000Y-82042000D03*
X82296000Y-79502000D03*
X82296000Y-76962000D03*
D12*
X79756000Y-84582000D03*
D13*
X79756000Y-82042000D03*
X79756000Y-79502000D03*
X79756000Y-76962000D03*
D12*
X77216000Y-84582000D03*
D13*
X77216000Y-82042000D03*
X77216000Y-79502000D03*
X77216000Y-76962000D03*
D12*
X74676000Y-84582000D03*
D13*
X74676000Y-82042000D03*
X74676000Y-79502000D03*
X74676000Y-76962000D03*
D12*
X72136000Y-84582000D03*
D13*
X72136000Y-82042000D03*
X72136000Y-79502000D03*
X72136000Y-76962000D03*
D12*
X69596000Y-84582000D03*
D13*
X69596000Y-82042000D03*
X69596000Y-79502000D03*
X69596000Y-76962000D03*
D12*
X67056000Y-84582000D03*
D13*
X67056000Y-82042000D03*
X67056000Y-79502000D03*
X67056000Y-76962000D03*
D12*
X64516000Y-84582000D03*
D13*
X64516000Y-82042000D03*
X64516000Y-79502000D03*
X64516000Y-76962000D03*
D12*
X61976000Y-84582000D03*
D13*
X61976000Y-82042000D03*
X61976000Y-79502000D03*
X61976000Y-76962000D03*
D12*
X59436000Y-84582000D03*
D13*
X59436000Y-82042000D03*
X59436000Y-79502000D03*
X59436000Y-76962000D03*
D12*
X56896000Y-84582000D03*
D13*
X56896000Y-82042000D03*
X56896000Y-79502000D03*
X56896000Y-76962000D03*
D12*
X54356000Y-84582000D03*
D13*
X54356000Y-82042000D03*
X54356000Y-79502000D03*
X54356000Y-76962000D03*
D12*
X51816000Y-84582000D03*
D13*
X51816000Y-82042000D03*
X51816000Y-79502000D03*
X51816000Y-76962000D03*
D12*
X49276000Y-84582000D03*
D13*
X49276000Y-82042000D03*
X49276000Y-79502000D03*
X49276000Y-76962000D03*
D12*
X46736000Y-84582000D03*
D13*
X46736000Y-82042000D03*
X46736000Y-79502000D03*
X46736000Y-76962000D03*
D12*
X44196000Y-84582000D03*
D13*
X44196000Y-82042000D03*
X44196000Y-79502000D03*
X44196000Y-76962000D03*
D12*
X41656000Y-84582000D03*
D13*
X41656000Y-82042000D03*
X41656000Y-79502000D03*
X41656000Y-76962000D03*
D12*
X39116000Y-84582000D03*
D13*
X39116000Y-82042000D03*
X39116000Y-79502000D03*
X39116000Y-76962000D03*
D12*
X36576000Y-84582000D03*
D13*
X36576000Y-82042000D03*
X36576000Y-79502000D03*
X36576000Y-76962000D03*
D12*
X34036000Y-84582000D03*
D13*
X34036000Y-82042000D03*
X34036000Y-79502000D03*
X34036000Y-76962000D03*
D12*
X31496000Y-84582000D03*
D13*
X31496000Y-82042000D03*
X31496000Y-79502000D03*
X31496000Y-76962000D03*
D12*
X28956000Y-84582000D03*
D13*
X28956000Y-82042000D03*
X28956000Y-79502000D03*
X28956000Y-76962000D03*
D14*
X18399800Y-42550680D03*
X19199900Y-42550680D03*
X20000000Y-42550680D03*
X20800100Y-42550680D03*
X21600200Y-42550680D03*
D15*
X15549920Y-42649740D03*
X15549920Y-48148840D03*
X24450080Y-42649740D03*
X24450080Y-48148840D03*
D16*
X17800360Y-45149100D03*
X22199640Y-45149100D03*
D17*
X48000000Y-48000000D03*
D18*
X45460000Y-48000000D03*
X42920000Y-48000000D03*
D19*
X93002000Y-32384000D03*
X83002000Y-32384000D03*
X85002000Y-32384000D03*
X87002000Y-32384000D03*
X89002000Y-32384000D03*
X91002000Y-32384000D03*
X96002000Y-30884000D03*
X96002000Y-28884000D03*
X96002000Y-26884000D03*
X96002000Y-24884000D03*
X96002000Y-22884000D03*
X96002000Y-20884000D03*
X96002000Y-18884000D03*
X96002000Y-16884000D03*
D20*
X80002000Y-16884000D03*
D19*
X80002000Y-18884000D03*
X80002000Y-20884000D03*
X80002000Y-22884000D03*
X80002000Y-24884000D03*
X80002000Y-26884000D03*
X80002000Y-28884000D03*
X80002000Y-30884000D03*
D21*
X21000000Y-18350000D03*
X21000000Y-15650000D03*
D22*
X15403600Y-28000000D03*
X8596400Y-28000000D03*
D23*
X48350000Y-31000000D03*
X45650000Y-31000000D03*
X41650000Y-13000000D03*
X44350000Y-13000000D03*
D21*
X24000000Y-18350000D03*
X24000000Y-15650000D03*
D23*
X48350000Y-34000000D03*
X45650000Y-34000000D03*
D24*
X14498860Y-21352040D03*
X16000000Y-21352040D03*
X17501140Y-21352040D03*
D25*
X16000000Y-17399800D03*
D10*
G36*
X17200760Y-19174650D02*
X16700380Y-20323950D01*
X15299620Y-20323950D01*
X14799240Y-19174650D01*
X17200760Y-19174650D01*
X17200760Y-19174650D01*
G37*
D26*
X28000000Y-48000000D03*
D27*
X30540000Y-48000000D03*
D17*
X39000000Y-48000000D03*
D18*
X36460000Y-48000000D03*
X33920000Y-48000000D03*
D28*
X9000000Y-42125000D03*
X9000000Y-47875000D03*
X13000000Y-47875000D03*
X13000000Y-42125000D03*
X6000000Y-47875000D03*
X6000000Y-42125000D03*
X2000000Y-42125000D03*
X2000000Y-47875000D03*
D12*
X84320000Y-28060000D03*
D13*
X84320000Y-25520000D03*
X84320000Y-22980000D03*
X84320000Y-20440000D03*
X84320000Y-17900000D03*
X84320000Y-15360000D03*
X84320000Y-12820000D03*
X84320000Y-10280000D03*
X84320000Y-7740000D03*
X84320000Y-5200000D03*
X84320000Y-2660000D03*
D12*
X91940000Y-2660000D03*
D13*
X91940000Y-5200000D03*
X91940000Y-7740000D03*
X91940000Y-10280000D03*
X91940000Y-12820000D03*
X91940000Y-15360000D03*
X91940000Y-17900000D03*
X91940000Y-20440000D03*
X91940000Y-22980000D03*
X91940000Y-25520000D03*
X91940000Y-28060000D03*
D12*
X2540000Y-2540000D03*
D13*
X2540000Y-5080000D03*
X2540000Y-7620000D03*
X2540000Y-10160000D03*
X2540000Y-12700000D03*
X2540000Y-15240000D03*
X2540000Y-17780000D03*
X2540000Y-20320000D03*
X2540000Y-22860000D03*
X2540000Y-25400000D03*
X2540000Y-27940000D03*
X2540000Y-30480000D03*
X2540000Y-33020000D03*
X2540000Y-35560000D03*
D12*
X10160000Y-22860000D03*
D13*
X10160000Y-20320000D03*
X10160000Y-17780000D03*
X10160000Y-15240000D03*
D21*
X45000000Y-37650000D03*
X45000000Y-40350000D03*
D29*
X34000000Y-37365000D03*
X34000000Y-40635000D03*
D21*
X42000000Y-37650000D03*
X42000000Y-40350000D03*
D30*
X23000000Y-28302000D03*
D31*
X23000000Y-21698000D03*
X20714000Y-21698000D03*
X25286000Y-21698000D03*
D17*
X29000000Y-44000000D03*
D18*
X31540000Y-44000000D03*
X34080000Y-44000000D03*
X36620000Y-44000000D03*
X39160000Y-44000000D03*
X41700000Y-44000000D03*
X44240000Y-44000000D03*
X46780000Y-44000000D03*
D12*
X30480000Y-2540000D03*
D13*
X30480000Y-5080000D03*
X30480000Y-7620000D03*
X30480000Y-10160000D03*
X30480000Y-12700000D03*
X30480000Y-15240000D03*
X30480000Y-17780000D03*
X30480000Y-20320000D03*
X30480000Y-22860000D03*
X30480000Y-25400000D03*
X30480000Y-27940000D03*
D12*
X38100000Y-2540000D03*
D13*
X38100000Y-5080000D03*
X38100000Y-7620000D03*
X38100000Y-10160000D03*
X38100000Y-12700000D03*
X38100000Y-15240000D03*
X38100000Y-17780000D03*
X38100000Y-20320000D03*
X38100000Y-22860000D03*
X38100000Y-25400000D03*
X38100000Y-27940000D03*
D12*
X97536000Y-97282000D03*
D13*
X97536000Y-94742000D03*
X97536000Y-92202000D03*
X97536000Y-89662000D03*
X97536000Y-87122000D03*
X97536000Y-84582000D03*
X97536000Y-82042000D03*
X97536000Y-79502000D03*
X97536000Y-76962000D03*
X97536000Y-74422000D03*
X97536000Y-71882000D03*
X97536000Y-69342000D03*
X97536000Y-66802000D03*
X97536000Y-64262000D03*
D12*
X23876000Y-76962000D03*
D13*
X23876000Y-79502000D03*
X23876000Y-82042000D03*
X23876000Y-84582000D03*
D12*
X92456000Y-64262000D03*
D13*
X92456000Y-66802000D03*
X92456000Y-69342000D03*
X92456000Y-71882000D03*
X92456000Y-74422000D03*
X92456000Y-76962000D03*
X92456000Y-79502000D03*
X92456000Y-82042000D03*
X92456000Y-84582000D03*
X92456000Y-87122000D03*
X92456000Y-89662000D03*
X92456000Y-92202000D03*
X92456000Y-94742000D03*
X92456000Y-97282000D03*
D12*
X26416000Y-84582000D03*
D13*
X26416000Y-82042000D03*
X26416000Y-79502000D03*
X26416000Y-76962000D03*
D32*
X7000000Y-35500000D03*
X29500000Y-35500000D03*
D33*
X18250000Y-35500000D03*
D34*
X38000000Y-38730000D03*
X38000000Y-37460000D03*
X38000000Y-40000000D03*
D35*
X37750000Y-34000000D03*
X34000000Y-30000000D03*
X34000000Y-34000000D03*
M02*
