G04 #@! TF.FileFunction,Profile,NP*
%FSLAX46Y46*%
G04 Gerber Fmt 4.6, Leading zero omitted, Abs format (unit mm)*
G04 Created by KiCad (PCBNEW 4.0.2+dfsg1-stable) date Thu 29 Sep 2016 01:56:18 PM PDT*
%MOMM*%
G01*
G04 APERTURE LIST*
%ADD10C,0.100000*%
%ADD11C,0.010000*%
G04 APERTURE END LIST*
D10*
D11*
X0Y-49000000D02*
G75*
G03X1000000Y-50000000I1000000J0D01*
G01*
X1000000Y-51000000D02*
G75*
G03X0Y-52000000I0J-1000000D01*
G01*
X24000000Y-50500000D02*
G75*
G03X23500000Y-50000000I-500000J0D01*
G01*
X23500000Y-51000000D02*
G75*
G03X24000000Y-50500000I0J500000D01*
G01*
X26000000Y-50500000D02*
G75*
G03X26500000Y-51000000I500000J0D01*
G01*
X26500000Y-50000000D02*
G75*
G03X26000000Y-50500000I0J-500000D01*
G01*
X49000000Y-50000000D02*
G75*
G03X50000000Y-49000000I0J1000000D01*
G01*
X50000000Y-51000000D02*
G75*
G03X51000000Y-50000000I0J1000000D01*
G01*
X1000000Y0D02*
G75*
G03X0Y-1000000I0J-1000000D01*
G01*
X52000000Y0D02*
G75*
G03X51000000Y-1000000I0J-1000000D01*
G01*
X50000000Y-1000000D02*
G75*
G03X49000000Y0I-1000000J0D01*
G01*
X51000000Y-26500000D02*
G75*
G03X50500000Y-26000000I-500000J0D01*
G01*
X50500000Y-26000000D02*
G75*
G03X50000000Y-26500000I0J-500000D01*
G01*
X50500000Y-24000000D02*
G75*
G03X51000000Y-23500000I0J500000D01*
G01*
X50000000Y-23500000D02*
G75*
G03X50500000Y-24000000I500000J0D01*
G01*
X77000000Y0D02*
G75*
G03X76000000Y-1000000I0J-1000000D01*
G01*
X75000000Y-1000000D02*
G75*
G03X74000000Y0I-1000000J0D01*
G01*
X76000000Y-20000000D02*
G75*
G03X75500000Y-19500000I-500000J0D01*
G01*
X75500000Y-19500000D02*
G75*
G03X75000000Y-20000000I0J-500000D01*
G01*
X75500000Y-17500000D02*
G75*
G03X76000000Y-17000000I0J500000D01*
G01*
X75000000Y-17000000D02*
G75*
G03X75500000Y-17500000I500000J0D01*
G01*
X75000000Y-37000000D02*
G75*
G03X76000000Y-38000000I1000000J0D01*
G01*
X76000000Y-36000000D02*
G75*
G03X77000000Y-37000000I1000000J0D01*
G01*
X89000000Y-37500000D02*
G75*
G03X89500000Y-38000000I500000J0D01*
G01*
X89500000Y-37000000D02*
G75*
G03X89000000Y-37500000I0J-500000D01*
G01*
X86500000Y-38000000D02*
G75*
G03X87000000Y-37500000I0J500000D01*
G01*
X87000000Y-37500000D02*
G75*
G03X86500000Y-37000000I-500000J0D01*
G01*
X100000000Y-39000000D02*
G75*
G03X99000000Y-38000000I-1000000J0D01*
G01*
X99000000Y-37000000D02*
G75*
G03X100000000Y-36000000I0J1000000D01*
G01*
X100000000Y-1000000D02*
G75*
G03X99000000Y0I-1000000J0D01*
G01*
X99000000Y-100000000D02*
G75*
G03X100000000Y-99000000I0J1000000D01*
G01*
X99000000Y-61000000D02*
G75*
G03X99500000Y-60500000I0J500000D01*
G01*
X99500000Y-60500000D02*
G75*
G03X99000000Y-60000000I-500000J0D01*
G01*
X89000000Y-60000000D02*
G75*
G03X88000000Y-61000000I0J-1000000D01*
G01*
X90000000Y-61000000D02*
G75*
G03X89000000Y-62000000I0J-1000000D01*
G01*
X88000000Y-75000000D02*
G75*
G03X89000000Y-74000000I0J1000000D01*
G01*
X87000000Y-74000000D02*
G75*
G03X88000000Y-73000000I0J1000000D01*
G01*
X22000000Y-74000000D02*
G75*
G03X21000000Y-75000000I0J-1000000D01*
G01*
X23000000Y-75000000D02*
G75*
G03X22000000Y-76000000I0J-1000000D01*
G01*
X21500000Y-80000000D02*
G75*
G03X22000000Y-79500000I0J500000D01*
G01*
X21000000Y-79500000D02*
G75*
G03X21500000Y-80000000I500000J0D01*
G01*
X21500000Y-81000000D02*
G75*
G03X21000000Y-81500000I0J-500000D01*
G01*
X22000000Y-81500000D02*
G75*
G03X21500000Y-81000000I-500000J0D01*
G01*
X21000000Y-86500000D02*
G75*
G03X22000000Y-87500000I1000000J0D01*
G01*
X22000000Y-85500000D02*
G75*
G03X23000000Y-86500000I1000000J0D01*
G01*
X89000000Y-87500000D02*
G75*
G03X88000000Y-86500000I-1000000J0D01*
G01*
X88000000Y-88500000D02*
G75*
G03X87000000Y-87500000I-1000000J0D01*
G01*
X88500000Y-99500000D02*
G75*
G03X89000000Y-99000000I0J500000D01*
G01*
X88000000Y-99000000D02*
G75*
G03X88500000Y-99500000I500000J0D01*
G01*
X50000000Y-23500000D02*
X50000000Y-1000000D01*
X1000000Y-50000000D02*
X23500000Y-50000000D01*
X23500000Y-51000000D02*
X1000000Y-51000000D01*
X26500000Y-50000000D02*
X49000000Y-50000000D01*
X50000000Y-51000000D02*
X26500000Y-51000000D01*
X51000000Y-50000000D02*
X51000000Y-26500000D01*
X50000000Y-26500000D02*
X50000000Y-49000000D01*
X51000000Y-23500000D02*
X51000000Y-1000000D01*
X1000000Y0D02*
X49000000Y0D01*
X0Y-49000000D02*
X0Y-1000000D01*
X0Y-100000000D02*
X0Y-52000000D01*
X52000000Y0D02*
X74000000Y0D01*
X76000000Y-36000000D02*
X76000000Y-20000000D01*
X75000000Y-20000000D02*
X75000000Y-37000000D01*
X76000000Y-1000000D02*
X76000000Y-17000000D01*
X75000000Y-17000000D02*
X75000000Y-1000000D01*
X100000000Y-39000000D02*
X100000000Y-99000000D01*
X99000000Y0D02*
X77000000Y0D01*
X100000000Y-36000000D02*
X100000000Y-1000000D01*
X76000000Y-38000000D02*
X86500000Y-38000000D01*
X86500000Y-37000000D02*
X77000000Y-37000000D01*
X89500000Y-38000000D02*
X99000000Y-38000000D01*
X99000000Y-37000000D02*
X89500000Y-37000000D01*
X99000000Y-100000000D02*
X0Y-100000000D01*
X90000000Y-61000000D02*
X99000000Y-61000000D01*
X99000000Y-60000000D02*
X89000000Y-60000000D01*
X88000000Y-88500000D02*
X88000000Y-99000000D01*
X89000000Y-99000000D02*
X89000000Y-87500000D01*
X22000000Y-87500000D02*
X87000000Y-87500000D01*
X22000000Y-85500000D02*
X22000000Y-81500000D01*
X88000000Y-86500000D02*
X23000000Y-86500000D01*
X21000000Y-81500000D02*
X21000000Y-86500000D01*
X22000000Y-79500000D02*
X22000000Y-76000000D01*
X21000000Y-75000000D02*
X21000000Y-79500000D01*
X22000000Y-74000000D02*
X87000000Y-74000000D01*
X88000000Y-75000000D02*
X23000000Y-75000000D01*
X89000000Y-62000000D02*
X89000000Y-74000000D01*
X88000000Y-61000000D02*
X88000000Y-73000000D01*
M02*
